<?xml version="1.0" standalone="no"?>
<!DOCTYPE svg PUBLIC "-//W3C//DTD SVG 20010904//EN"
 "http://www.w3.org/TR/2001/REC-SVG-20010904/DTD/svg10.dtd">
<svg version="1.0" xmlns="http://www.w3.org/2000/svg"
 width="192.000000pt" height="192.000000pt" viewBox="0 0 192.000000 192.000000"
 preserveAspectRatio="xMidYMid meet">
<metadata>
Created by potrace 1.14, written by Peter Selinger 2001-2017
</metadata>
<g transform="translate(0.000000,192.000000) scale(0.100000,-0.100000)"
fill="#000000" stroke="none">
<path d="M922 1843 c-6 -3 -10 -8 -7 -13 3 -5 -3 -7 -12 -5 -10 1 -28 -6 -40
-17 -13 -12 -29 -18 -38 -14 -9 3 -14 2 -11 -3 3 -5 -10 -8 -29 -7 -24 1 -35
6 -35 16 0 10 -3 11 -8 4 -8 -12 -42 -15 -42 -3 0 4 -13 2 -29 -4 -17 -6 -28
-15 -25 -19 3 -4 -2 -8 -10 -8 -9 0 -16 -7 -16 -16 0 -9 -5 -12 -12 -8 -8 5
-9 2 -5 -10 4 -9 3 -14 -2 -11 -5 3 -12 1 -16 -5 -4 -6 -11 -7 -17 -4 -6 4 -8
2 -4 -4 3 -6 2 -13 -4 -17 -5 -3 -10 -1 -10 5 0 6 -5 8 -10 5 -6 -4 -7 -12 -4
-18 5 -8 3 -8 -7 1 -14 13 -33 17 -26 5 3 -5 -9 -8 -26 -7 -45 2 -84 -40 -78
-85 2 -7 -2 -10 -8 -6 -10 5 -12 2 -11 -20 1 -11 -25 -33 -32 -28 -5 2 -8 -1
-8 -7 0 -6 -4 -9 -9 -5 -5 3 -16 -1 -24 -9 -8 -8 -17 -12 -21 -9 -3 4 -6 1 -6
-5 0 -7 -3 -11 -7 -11 -17 3 -36 -1 -31 -7 4 -3 0 -17 -7 -31 -8 -15 -12 -30
-9 -35 3 -4 0 -17 -7 -29 -6 -12 -7 -19 -1 -15 7 4 6 -5 -1 -23 -6 -17 -15
-28 -19 -25 -4 3 -8 -1 -8 -9 0 -7 -11 -20 -25 -27 -14 -7 -23 -16 -20 -18 3
-3 -2 -10 -11 -16 -16 -12 -26 -77 -14 -86 4 -3 11 -16 15 -29 6 -18 4 -22 -6
-15 -12 6 -12 5 0 -9 11 -14 11 -17 0 -17 -12 0 -12 -2 -1 -9 11 -7 10 -9 -3
-15 -9 -3 -14 -10 -11 -15 4 -5 0 -15 -7 -23 -22 -22 -42 -78 -28 -78 7 0 9
-7 13 -49 1 -11 5 -18 8 -16 7 4 24 -17 28 -35 11 -46 12 -61 2 -55 -6 3 -7 0
-4 -9 4 -10 1 -16 -7 -16 -9 0 -10 -3 -4 -8 13 -9 17 -32 6 -32 -11 0 -9 -19
3 -39 7 -10 5 -12 -5 -7 -8 4 -3 -2 11 -13 21 -18 23 -22 10 -32 -12 -8 -10
-9 8 -4 15 4 24 1 28 -9 3 -9 14 -16 23 -16 14 0 14 -2 1 -10 -13 -9 -13 -10
0 -11 8 -1 18 -1 21 -1 3 1 6 -5 6 -13 0 -8 -4 -12 -9 -9 -4 3 -8 0 -8 -5 0
-6 5 -11 12 -11 9 0 9 -3 1 -11 -7 -7 -8 -18 -3 -28 5 -9 14 -30 20 -47 8 -23
20 -33 41 -38 20 -4 28 -10 23 -18 -5 -8 -2 -9 10 -5 10 4 24 -1 35 -12 11
-11 22 -17 25 -15 3 2 4 1 1 -3 -3 -3 0 -12 6 -20 6 -7 8 -13 3 -13 -4 0 1 -7
12 -16 10 -8 14 -13 7 -10 -8 5 -8 0 0 -17 11 -24 62 -54 85 -49 6 2 12 -2 12
-8 0 -5 9 -10 21 -10 11 0 18 -4 15 -8 -3 -5 1 -9 9 -9 8 0 12 4 9 9 -11 17
20 7 48 -17 16 -14 27 -25 24 -25 -3 0 2 -8 11 -18 10 -11 22 -17 26 -14 5 2
15 -5 23 -17 12 -16 19 -19 33 -11 10 5 22 6 26 2 5 -4 5 -2 1 5 -4 7 -13 10
-21 6 -8 -3 -15 -1 -15 4 0 4 14 9 30 9 21 1 30 -3 31 -15 0 -9 5 -3 11 13 7
18 13 24 18 17 4 -7 17 -13 29 -14 21 -1 21 -2 4 -15 -16 -12 -15 -13 11 -6
23 6 27 4 21 -7 -7 -11 -6 -12 7 -2 18 15 29 7 20 -15 -5 -15 -4 -16 13 -2 17
14 18 13 12 -2 -3 -10 -1 -20 5 -24 7 -4 8 -3 4 4 -4 7 -2 12 4 12 6 0 9 4 6
9 -8 12 27 8 36 -4 5 -6 8 -3 8 6 0 10 7 16 17 15 10 0 18 4 18 11 0 6 4 15 9
20 5 5 6 3 2 -4 -4 -7 -3 -13 3 -13 5 0 12 6 14 13 4 9 6 9 6 -1 1 -11 4 -10
16 1 17 17 51 15 47 -2 -1 -6 2 -11 8 -11 5 0 10 5 10 10 0 6 5 10 11 10 5 0
7 -4 4 -10 -3 -5 -1 -10 4 -10 6 0 11 6 11 13 0 7 5 4 11 -5 8 -15 13 -16 29
-6 10 7 17 15 14 19 -2 4 4 6 13 5 10 0 18 4 18 11 0 17 8 22 42 25 18 1 29 6
27 10 -3 5 -12 7 -19 6 -8 -2 -13 1 -12 7 1 5 6 9 11 7 4 -1 14 5 21 14 11 16
12 16 18 0 4 -10 3 -15 -3 -11 -6 3 -10 1 -10 -4 0 -15 13 -14 28 1 10 10 15
10 23 -2 9 -13 10 -13 6 0 -2 8 -11 14 -20 14 -9 -1 -14 3 -11 8 3 5 12 7 19
4 7 -2 18 1 24 7 9 9 10 8 5 -7 -6 -15 -4 -17 6 -11 10 6 12 4 7 -9 -4 -10 -3
-15 4 -11 5 4 7 15 4 25 -4 13 -1 17 12 16 10 0 17 5 15 12 -1 8 2 11 7 8 5
-3 20 -2 33 3 17 7 18 10 6 10 -20 1 -24 16 -8 26 6 4 8 10 5 15 -3 5 11 25
30 46 19 20 35 33 35 27 0 -5 -5 -14 -11 -20 -8 -8 -7 -13 2 -18 8 -5 10 -4 5
3 -4 6 5 18 19 28 13 9 22 21 18 27 -4 6 -1 7 6 3 7 -5 18 -1 25 10 8 10 20
15 30 11 14 -6 15 -3 6 13 -9 16 -7 20 7 21 17 0 17 1 1 7 -12 5 -15 11 -8 22
6 9 5 20 -3 29 -10 12 -9 13 2 6 11 -6 13 -4 7 10 -5 15 -4 16 9 5 13 -11 14
-10 9 5 -5 12 -4 16 3 12 12 -8 39 20 30 30 -4 3 -9 -2 -13 -11 -6 -17 -24
-13 -24 6 0 6 3 9 6 5 7 -7 64 49 64 63 0 5 8 10 17 12 13 2 18 13 18 40 0 28
-3 34 -13 26 -9 -8 -11 -7 -6 7 6 14 4 16 -6 10 -9 -5 -11 -4 -6 4 4 6 11 9
15 7 4 -3 8 1 8 10 0 10 -7 12 -21 8 -12 -3 -16 -2 -10 3 6 4 10 16 8 26 -2
14 2 16 19 11 22 -6 22 -6 2 10 l-20 17 20 -3 c11 -2 26 -10 34 -18 11 -12 11
-11 -1 10 -19 34 -12 81 10 73 13 -4 12 -2 -3 10 -16 13 -17 17 -5 18 8 1 19
0 25 -1 5 -1 6 2 2 7 -5 4 -14 8 -20 8 -7 0 -13 14 -15 30 -2 17 -8 35 -13 40
-7 7 -8 3 -4 -10 6 -16 5 -17 -4 -5 -8 11 -7 18 5 27 9 6 11 14 5 17 -5 3 -12
0 -14 -6 -4 -10 -8 -9 -16 2 -7 11 -7 16 2 20 7 3 13 11 15 19 2 11 0 12 -10
3 -11 -9 -13 -3 -10 29 2 21 8 39 13 39 5 0 9 5 9 11 0 5 -4 8 -8 5 -5 -3 -9
1 -9 9 0 18 9 19 26 3 11 -11 11 -9 0 9 -7 12 -17 19 -23 16 -5 -4 -7 3 -4 15
4 14 2 19 -7 16 -6 -3 -18 3 -26 13 -13 17 -13 17 6 3 18 -14 19 -13 8 1 -7 9
-10 19 -6 23 4 4 0 4 -10 1 -19 -8 -47 16 -47 40 0 9 4 14 8 11 5 -3 9 2 9 10
0 10 -4 11 -11 4 -5 -5 -17 -10 -25 -10 -11 0 -10 4 5 16 10 8 12 12 4 8 -13
-7 -13 -6 0 11 14 17 13 18 -4 12 -18 -7 -18 -6 -1 19 9 15 12 23 6 20 -6 -4
-11 -2 -11 4 0 6 -5 8 -12 4 -8 -5 -8 -2 1 10 12 15 12 17 0 14 -8 -2 -13 2
-12 9 1 6 -4 14 -13 17 -8 3 -12 1 -9 -4 3 -6 -1 -7 -9 -4 -9 3 -14 10 -11 14
3 4 -2 11 -11 14 -10 4 -13 2 -8 -7 6 -9 5 -9 -7 0 -8 6 -18 11 -24 11 -5 0
-11 6 -13 14 -2 9 0 8 7 -2 6 -8 11 -10 11 -4 0 18 -13 24 -27 12 -11 -8 -12
-7 -7 6 4 9 1 16 -6 16 -7 0 -10 8 -7 19 4 15 1 18 -12 13 -14 -5 -14 -4 -1
13 8 10 11 16 5 13 -5 -3 -15 0 -22 7 -10 11 -10 15 0 18 7 3 4 6 -6 6 -10 1
-15 5 -12 11 4 6 -6 8 -24 6 -17 -2 -31 0 -31 5 0 5 -7 5 -17 2 -12 -5 -14 -3
-8 8 8 12 6 12 -8 0 -14 -11 -17 -11 -17 0 0 10 -3 10 -12 1 -8 -8 -16 -6 -29
10 -10 11 -16 25 -13 30 3 5 -2 8 -12 6 -13 -2 -19 3 -18 14 1 10 -2 15 -7 12
-5 -3 -16 2 -25 10 -9 9 -20 14 -25 11 -5 -4 -9 -2 -9 3 0 5 -7 9 -15 9 -8 0
-12 -4 -9 -9 3 -5 -6 -7 -20 -4 -14 3 -26 2 -26 -2 0 -4 -16 -8 -35 -9 -29 -3
-33 0 -28 15 5 14 3 13 -10 -3 -17 -20 -22 -13 -18 25 1 12 0 12 -7 2 -7 -10
-14 -10 -35 1 -15 8 -23 18 -19 23 4 4 0 3 -10 -4 -9 -7 -18 -9 -20 -4 -1 5
-9 7 -16 5z m854 -942 c0 -11 -5 -17 -13 -14 -10 4 -11 9 -2 19 15 18 15 18
15 -5z m-6 -181 c0 -5 -5 -10 -11 -10 -5 0 -7 5 -4 10 3 6 8 10 11 10 2 0 4
-4 4 -10z m-1221 -463 c0 -9 -2 -9 -5 0 -3 7 -13 9 -22 6 -14 -4 -14 -3 -2 5
16 12 30 7 29 -11z"/>
<path d="M1766 1172 c-2 -4 -1 -14 4 -22 7 -11 9 -9 7 8 -1 24 -3 26 -11 14z"/>
<path d="M1815 911 c-3 -5 -2 -12 3 -15 5 -3 9 1 9 9 0 17 -3 19 -12 6z"/>
<path d="M1753 670 c-1 -11 2 -20 5 -20 4 0 8 9 9 20 1 11 -2 20 -5 20 -4 0
-8 -9 -9 -20z"/>
<path d="M1725 649 c-4 -6 -5 -12 -2 -15 2 -3 7 2 10 11 7 17 1 20 -8 4z"/>
<path d="M1660 526 c0 -2 7 -7 16 -10 8 -3 12 -2 9 4 -6 10 -25 14 -25 6z"/>
<path d="M1625 451 c-3 -5 -2 -12 3 -15 5 -3 9 1 9 9 0 17 -3 19 -12 6z"/>
<path d="M269 423 c-13 -16 -12 -17 4 -4 16 13 21 21 13 21 -2 0 -10 -8 -17
-17z"/>
<path d="M1591 413 c-1 -17 16 -25 25 -12 4 7 3 9 -4 5 -5 -3 -13 0 -15 6 -4
9 -6 10 -6 1z"/>
<path d="M320 400 c-12 -7 -10 -9 7 -7 12 0 19 5 17 9 -6 10 -6 10 -24 -2z"/>
<path d="M1504 368 c-10 -12 -14 -18 -7 -15 6 4 13 4 16 0 2 -5 2 -3 1 4 -2 6
2 14 9 16 7 2 9 7 6 11 -3 3 -14 -4 -25 -16z"/>
<path d="M476 242 c-3 -5 1 -9 9 -9 8 0 12 4 9 9 -3 4 -7 8 -9 8 -2 0 -6 -4
-9 -8z"/>
<path d="M585 220 c10 -11 20 -20 23 -20 3 0 -3 9 -13 20 -10 11 -20 20 -23
20 -3 0 3 -9 13 -20z"/>
<path d="M1254 178 c0 -16 2 -17 11 -5 5 7 17 12 25 9 8 -3 12 -2 9 2 -4 4
-15 8 -26 10 -13 3 -19 -2 -19 -16z"/>
<path d="M793 155 c0 -8 4 -12 9 -9 5 3 6 10 3 15 -9 13 -12 11 -12 -6z"/>
<path d="M1070 150 c-6 -11 -8 -20 -6 -20 3 0 10 9 16 20 6 11 8 20 6 20 -3 0
-10 -9 -16 -20z"/>
<path d="M1233 145 c0 -8 4 -12 9 -9 5 3 6 10 3 15 -9 13 -12 11 -12 -6z"/>
<path d="M1030 130 c-9 -6 -10 -10 -3 -10 6 0 15 5 18 10 8 12 4 12 -15 0z"/>
<path d="M990 110 c0 -5 5 -10 11 -10 5 0 7 5 4 10 -3 6 -8 10 -11 10 -2 0 -4
-4 -4 -10z"/>
</g>
</svg>
